<svg version="1.1" id="Layer_1" xmlns="http://www.w3.org/2000/svg" xmlns:xlink="http://www.w3.org/1999/xlink" x="0px" y="0px" viewBox="0 0 68.4 68.4" style="enable-background:new 0 0 68.4 68.4;" xml:space="preserve">
 <style type="text/css">
  .st0{fill:#006671;}
 </style>
 <g>
  <path class="st0" d="M26.2,28.7c0-1.8-0.9-2.9-3.5-2.9c-0.9,0-1.4,0-2,0.1l-1.4,7.5c0.4,0.1,0.9,0.1,1.5,0.1
		C23.6,33.5,26.2,31.5,26.2,28.7 M53,23.8L52.6,26h-7.1L44.4,32h6.8l-0.4,2.1H44l-1.2,6.6h7.1l-0.4,2.2h-9.6l3.6-19.1H53z
		 M40.4,23.6L40,25.9c-0.9-0.3-2-0.5-2.7-0.5c-2.8,0-4.1,1.6-4.1,3.1c0,3.5,5.8,3.6,5.8,8.1c0,3.5-3.1,6.3-7.6,6.3
		c-1,0-2.2-0.1-3.1-0.4l0.5-2.5c0.8,0.3,1.9,0.6,2.9,0.6c2.9,0,4.6-1.4,4.6-3.6c0-3.3-5.8-3.3-5.8-7.9c0-3.1,2.5-5.9,7-5.9
		C38.5,23.3,39.4,23.3,40.4,23.6 M28.9,28.3c0,4.3-4,7.4-8.5,7.4c-0.5,0-1.1,0-1.6-0.1l-1.4,7.3h-2.5l3.6-19.1
		c1.4-0.1,2.9-0.1,4.6-0.1C26.9,23.7,28.9,25.5,28.9,28.3 M67.8,32.9L35.6,0.6c-0.8-0.8-1.8-0.9-2.7,0L0.6,32.9
		c-0.8,0.8-0.8,1.8,0,2.7l32.3,32.3c0.8,0.8,1.9,0.8,2.7,0l32.2-32.2C68.6,34.7,68.6,33.7,67.8,32.9">
  </path>
 </g>
</svg>